<svg width="64" height="64" viewBox="0 0 64 64" fill="none" xmlns="http://www.w3.org/2000/svg">
<path fill-rule="evenodd" clip-rule="evenodd" d="M64 32C64 49.6731 49.6731 64 32 64C14.3269 64 0 49.6731 0 32C0 14.3269 14.3269 0 32 0C49.6731 0 64 14.3269 64 32ZM61.5244 31.8625C61.5244 48.2443 48.2443 61.5243 31.8625 61.5243C15.4807 61.5243 2.20058 48.2443 2.20058 31.8625C2.20058 15.4806 15.4807 2.20057 31.8625 2.20057C48.2443 2.20057 61.5244 15.4806 61.5244 31.8625ZM19.0424 22.4083C21.5841 21.0322 24.7356 19.851 24.7889 19.904C24.8776 19.9913 24.8615 20.6461 24.5576 21.3639C24.2537 22.0817 23.3844 23.8778 22.659 24.9095C21.9336 25.9411 21.3715 27.325 21.3715 27.325C21.3715 27.325 20.8079 28.7705 22.1312 29.3594C23.12 29.7994 24.5048 29.1072 24.5048 29.1072C24.5048 29.1072 28.359 27.5125 29.3971 28.4967C31.2838 30.2854 30.2352 34.743 30.2352 34.743C30.2352 34.743 28.203 34.5543 25.7827 34.5093C23.3624 34.4644 21.2811 34.6839 19.6553 35.1317C18.0295 35.5795 16.4769 36.3999 15.2191 38.3787C13.9612 40.3575 13.5756 42.3073 13.6462 44.0241C13.7168 45.7409 14.7854 47.7264 15.8189 48.3662C17.3599 49.3203 18.8919 49.704 21.841 48.7993C25.1862 47.7732 27.6604 44.9271 29.3257 42.6893C30.9909 40.4515 32.1155 37.2817 32.1155 37.2817C32.1155 37.2817 32.659 37.3209 33.5272 37.1253C35.2963 36.7267 37.2298 34.6229 37.2298 34.6229L38.2159 44.7131C38.2159 44.7131 38.4099 45.8058 39.5382 45.7409C40.6664 45.6759 40.6664 44.4337 40.6664 44.4337L39.402 31.682C39.402 31.682 39.5673 31.4845 39.804 30.9641C39.8932 30.7678 39.8714 30.5725 39.8714 30.5725C39.8714 30.5725 40.2449 30.8968 41.6224 32.2984C42.9999 33.6999 43.5559 34.213 44.9792 35.048C46.4025 35.883 48.3459 36.1586 49.6984 36.2408C51.051 36.3231 52.054 36.0485 52.054 36.0485C52.054 36.0485 52.89 35.8194 52.89 34.8074C52.89 34.1551 52.2494 33.623 51.8052 33.6483C51.6827 33.6553 51.5116 33.6696 51.3172 33.6859C50.8062 33.7286 50.1337 33.7849 49.7577 33.7574C49.7363 33.7559 49.7029 33.7545 49.6586 33.7526C49.1035 33.7287 46.8434 33.6317 45.281 32.2984C43.215 30.5353 39.9023 27.1378 39.9023 27.1378C39.9023 27.1378 40.6183 26.5467 42.5503 24.1925C44.5288 21.7814 45.8138 17.2008 45.9352 16.3057C45.9734 16.0238 45.8039 15.0309 44.8492 14.9132C44.3128 14.8471 43.8551 15.0444 43.5194 15.7501C43.4281 15.9422 43.3722 16.1974 43.2964 16.5442L43.2963 16.5442C43.0934 17.4715 42.7472 19.0536 41.1956 21.835C40.8035 22.5379 38.6558 24.9095 38.6558 24.9095C38.6558 24.9095 37.8295 17.4858 37.4676 16.8515C37.4663 16.8492 37.4635 16.8423 37.4591 16.8313C37.4023 16.6895 37.0767 15.8764 36.2284 15.8764C35.2961 15.8764 34.9416 16.6524 34.9076 17.2838C34.8736 17.9151 34.5154 18.6459 33.9981 19.1549C33.4808 19.6639 32.4718 19.8193 32.3046 19.8193C32.1375 19.8193 31.3176 20.1498 31.3477 21.1287C31.3778 22.1077 32.4564 22.2756 32.5624 22.2729C34.3822 22.2262 35.7011 20.9764 35.7011 20.9764L36.8541 31.0773C36.8541 31.0773 36.1037 32.1599 35.0027 33.3342C34.1586 34.348 32.7836 34.7947 32.7836 34.7947C32.7836 34.7947 33.445 31.8956 32.5775 29.1204C31.8406 26.763 30.4764 26.2203 29.6775 25.9114C27.8564 25.2074 24.6281 26.4709 24.6281 26.4709C24.6281 26.4709 26.4118 23.5588 26.8496 22.2624C27.2873 20.966 27.5073 19.7365 27.1153 18.9456C26.3972 17.4965 25.8322 17.4415 25.2154 17.3815L25.174 17.3775C23.0046 17.164 11.7067 23.5321 11.7067 23.5321C11.7067 23.5321 10.7699 24.2196 11.3798 25.1448C11.9897 26.07 12.8557 25.7178 12.8557 25.7178C12.8557 25.7178 14.5319 24.7824 16.4054 23.7791C17.5047 23.1904 17.947 22.9694 18.286 22.8C18.5248 22.6806 18.7124 22.5869 19.0424 22.4083ZM24.9469 43.9794C21.5633 47.1209 18.7558 47.1314 17.3952 46.4241C16.0346 45.7168 15.812 43.1324 16.5888 41.0397C17.3657 38.9471 18.9985 37.4779 22.0449 37.1335C25.0914 36.789 29.5119 37.127 29.5119 37.127C29.5119 37.127 28.3304 40.838 24.9469 43.9794Z" fill="#1B1F23"/>
</svg>
