<svg width="97" height="196" viewBox="0 0 97 196" fill="none" xmlns="http://www.w3.org/2000/svg">
<path fill-rule="evenodd" clip-rule="evenodd" d="M15.4612 0C6.9222 0 0 6.92221 0 15.4612V180.539C0 189.078 6.9222 196 15.4612 196H81.5388C90.0778 196 97 189.078 97 180.539V15.4612C97 6.9222 90.0778 0 81.5388 0H15.4612ZM14.2835 5.94659C9.68556 5.94659 5.95822 9.67392 5.95822 14.2718V180.896C5.95822 185.494 9.68556 189.221 14.2835 189.221H82.4782C87.0761 189.221 90.8034 185.494 90.8034 180.896V14.2718C90.8034 9.67393 87.0761 5.94659 82.4782 5.94659H73.0456C72.3887 5.94659 71.8563 6.47907 71.8563 7.13592V7.84951C71.8563 10.4769 69.7263 12.6068 67.099 12.6068H29.6627C27.0353 12.6068 24.9054 10.4769 24.9054 7.8495V7.13591C24.9054 6.47907 24.3729 5.94659 23.7161 5.94659H14.2835Z" fill="#1B1F23"/>
</svg>
